<svg width="120" height="120" viewBox="0 0 120 120" fill="none" xmlns="http://www.w3.org/2000/svg">
<path d="M60 120C93.2502 120 120 93.2502 120 60C120 26.7498 93.2502 0 60 0C26.7498 0 0 26.7498 0 60C0 93.2502 26.7498 120 60 120Z" fill="#2775CA"/>
<path d="M76.5 69.4998C76.5 60.75 71.25 57.75 60.75 56.5002C53.25 55.5 51.75 53.5002 51.75 49.9998C51.75 46.4994 54.2502 44.25 59.25 44.25C63.75 44.25 66.2502 45.75 67.5 49.5C67.7502 50.25 68.5002 50.7498 69.2502 50.7498H73.2498C74.25 50.7498 75 49.9998 75 49.0002V48.75C73.9998 43.2498 69.4998 39 63.75 38.5002V32.5002C63.75 31.5 63 30.75 61.7502 30.4998H58.0002C57 30.4998 56.25 31.2498 55.9998 32.5002V38.25C48.4998 39.2502 43.7502 44.25 43.7502 50.5002C43.7502 58.7502 48.75 61.9998 59.25 63.2502C66.2502 64.5 68.5002 66 68.5002 70.0002C68.5002 74.0004 64.9998 76.7502 60.2502 76.7502C53.7498 76.7502 51.4998 73.9998 50.7498 70.2498C50.5002 69.2502 49.7502 68.7498 49.0002 68.7498H44.7498C43.7502 68.7498 43.0002 69.4998 43.0002 70.5V70.7502C43.9998 76.9998 48 81.4998 56.25 82.7502V88.7502C56.25 89.7498 57 90.4998 58.2498 90.75H61.9998C63 90.75 63.75 90 64.0002 88.7502V82.7502C71.5002 81.4998 76.5 76.2498 76.5 69.4998Z" fill="white"/>
<path fill-rule="evenodd" clip-rule="evenodd" d="M25.0002 47.7498C17.7498 67.0002 27.75 88.7502 47.25 95.7498C48 96.2502 48.75 97.2498 48.75 97.9998V101.5C48.75 102 48.75 102.25 48.4998 102.5C48.2502 103.5 47.25 104 46.2498 103.5C32.25 99 21.4998 88.2498 16.9998 74.25C9.49979 50.5002 22.5 25.2498 46.2498 17.7498C46.5 17.5002 46.9998 17.5002 47.25 17.5002C48.2502 17.7498 48.75 18.4998 48.75 19.5V22.9998C48.75 24.2502 48.2502 25.0002 47.25 25.5C37.0002 29.25 28.7502 37.2498 25.0002 47.7498ZM71.5002 18.75C71.7498 17.7498 72.75 17.25 73.7502 17.7498C87.4998 22.2498 98.5002 33 103 47.25C110.5 70.9998 97.5 96.2502 73.7502 103.75C73.5 104 73.0002 104 72.75 104C71.7498 103.75 71.25 103 71.25 102V98.5002C71.25 97.2498 71.7498 96.4998 72.75 96C82.9998 92.25 91.2498 84.2502 94.9998 73.7502C102.25 54.4998 92.25 32.7498 72.75 25.7502C72 25.2498 71.25 24.2502 71.25 23.25V19.7502C71.25 19.2498 71.25 19.0002 71.5002 18.75Z" fill="white"/>
</svg>
