<svg width="120" height="120" viewBox="0 0 120 120" fill="none" xmlns="http://www.w3.org/2000/svg">
<path d="M118.191 74.5143C110.178 106.657 77.6222 126.219 45.4752 118.204C13.3417 110.19 -6.22004 77.6324 1.79691 45.4918C9.80683 13.3451 42.3626 -6.21803 74.4997 1.79541C106.644 9.80884 126.205 42.3702 118.191 74.5149L118.191 74.5143H118.191Z" fill="#50AF95"/>
<path fill-rule="evenodd" clip-rule="evenodd" d="M67.5923 66.8022C67.1681 66.834 64.9761 66.9648 60.0866 66.9648C56.1976 66.9648 53.4364 66.8482 52.4677 66.8022C37.4385 66.1411 26.2205 63.5248 26.2205 60.3924C26.2205 57.26 37.4385 54.6473 52.4677 53.9756V64.1966C53.4505 64.2673 56.2648 64.4334 60.1538 64.4334C64.8206 64.4334 67.1575 64.239 67.5782 64.2001V53.9826C82.5756 54.6508 93.7688 57.2671 93.7688 60.3924C93.7688 63.5178 82.5791 66.134 67.5782 66.7987L67.5923 66.8022ZM67.5924 52.9255V43.7793H88.5222V29.832H31.5378V43.7793H52.4641V52.922C35.4551 53.7033 22.6638 57.0726 22.6638 61.1101C22.6638 65.1476 35.4551 68.5134 52.4641 69.2982V98.6071H67.5888V69.2876C84.559 68.5063 97.329 65.1405 97.329 61.1066C97.329 57.0726 84.5696 53.7069 67.5888 52.922L67.5924 52.9255Z" fill="white"/>
</svg>
